<?xml version="1.0" encoding="UTF-8"?><svg xmlns="http://www.w3.org/2000/svg" viewBox="0 0 512 510.29"><defs><style>.e{fill:#f27264;}.f{fill:#8dd7f7;}.g{fill:#47b97e;}.h{fill:#a087bf;}</style></defs><g id="a"/><g id="b"><g id="c"><g id="d"><rect class="e" x="1.05" y="275.87" width="234.15" height="233.37"/><polygon class="f" points="512 510.29 277.37 510.29 277.37 276.44 512 510.29"/><polygon class="g" points="234.63 233.85 0 0 234.63 0 234.63 233.85"/><path class="h" d="M392.73,42.49c41.4,0,75.08,33.57,75.08,74.83s-33.68,74.83-75.08,74.83-75.08-33.57-75.08-74.83,33.68-74.83,75.08-74.83m0-42.49c-65.01,0-117.71,52.52-117.71,117.31s52.7,117.31,117.71,117.31,117.71-52.52,117.71-117.31S457.73,0,392.73,0h0Z"/></g></g></g></svg>