<?xml version="1.0" encoding="UTF-8"?><svg xmlns="http://www.w3.org/2000/svg" viewBox="0 0 174.89 32"><defs><style>.g{fill:#4a4a4a;}.h{fill:#f27264;}.i{fill:#8dd7f7;}.j{fill:#47b97e;}.k{fill:#a087bf;}</style></defs><g id="a"/><g id="b"><g id="c"><g id="d"><g id="e"><path class="g" d="M44.58,26V6.22h7.4c4.02,0,6.46,2.21,6.46,5.72,0,2.85-1.5,4.83-4.05,5.52l4.24,8.54h-2.22l-4.05-8.2h-5.79v8.2h-2Zm2-10h5.46c2.74,0,4.35-1.49,4.35-4.01s-1.69-3.98-4.41-3.98h-5.4v7.98Z"/><path class="g" d="M72.82,12.63v13.37h-1.66l-.25-2.26c-.75,1.55-2.61,2.6-4.71,2.6-3.16,0-4.88-2.15-4.88-5.41V12.6h1.94v7.71c0,3.18,1.41,4.31,3.55,4.31,2.58,0,4.1-1.71,4.1-4.89v-7.1h1.91Z"/><path class="g" d="M76.81,26V5.86h1.91V15.23c.94-1.96,2.77-2.96,5.04-2.96,3.91,0,6.18,3.04,6.18,7.07s-2.33,6.99-6.24,6.99c-2.24,0-4.1-.99-5.04-3.07l-.19,2.73h-1.66Zm6.6-1.41c2.91,0,4.6-2.21,4.6-5.3s-1.69-5.3-4.6-5.3-4.66,2.24-4.66,5.3,1.72,5.3,4.66,5.3Z"/><path class="g" d="M92.53,7.55c0-.77,.64-1.44,1.41-1.44s1.44,.66,1.44,1.44-.67,1.41-1.44,1.41-1.41-.64-1.41-1.41Zm.47,5.08h1.91v13.37h-1.91V12.63Z"/><path class="g" d="M97.99,26v-1.52l7.76-10.25h-7.76v-1.6h10.12v1.55l-7.79,10.22h7.79v1.6h-10.12Z"/><path class="g" d="M110.37,16.11c0-6.08,3.82-10.22,9.42-10.22,4.27,0,7.62,2.57,8.43,6.49h-2.13c-.83-2.85-3.27-4.59-6.37-4.59-4.35,0-7.26,3.31-7.26,8.31s2.91,8.29,7.26,8.29c3.13,0,5.63-1.69,6.49-4.34h2.13c-.91,3.73-4.38,6.24-8.65,6.24-5.54,0-9.31-4.12-9.31-10.19Z"/><path class="g" d="M137.26,12.27c3.94,0,6.82,2.96,6.82,7.04s-2.88,7.02-6.82,7.02-6.82-2.96-6.82-7.02,2.88-7.04,6.82-7.04Zm0,12.35c2.85,0,4.88-2.18,4.88-5.33s-2.02-5.3-4.88-5.3-4.88,2.21-4.88,5.3,2,5.33,4.88,5.33Z"/><path class="g" d="M146.18,19.34c0-4.03,2.3-7.07,6.29-7.07,2.22,0,3.99,.97,4.93,2.9V5.86h1.91V26h-1.66l-.19-2.73c-.94,2.07-2.83,3.07-5.07,3.07-3.91,0-6.21-2.98-6.21-6.99Zm11.2-.06c0-3.07-1.72-5.3-4.66-5.3s-4.6,2.24-4.6,5.3,1.69,5.3,4.6,5.3,4.66-2.21,4.66-5.3Z"/><path class="g" d="M162.36,19.31c0-4.17,2.61-7.04,6.43-7.04s6.1,2.57,6.1,6.35v.94h-10.67c.14,3.26,1.86,5.14,4.74,5.14,2.19,0,3.6-.94,4.1-2.71h1.83c-.72,2.82-2.8,4.34-5.96,4.34-3.94,0-6.57-2.82-6.57-7.02Zm1.91-1.13h8.7c0-2.57-1.66-4.28-4.18-4.28s-4.18,1.66-4.52,4.28Z"/></g><g id="f"><rect class="h" x=".07" y="17.3" width="14.68" height="14.63"/><polygon class="i" points="32.11 32 17.39 32 17.39 17.34 32.11 32"/><polygon class="j" points="14.71 14.66 0 0 14.71 0 14.71 14.66"/><path class="k" d="M24.63,2.66c2.6,0,4.71,2.11,4.71,4.69s-2.11,4.69-4.71,4.69-4.71-2.11-4.71-4.69,2.11-4.69,4.71-4.69m0-2.66c-4.08,0-7.38,3.29-7.38,7.36s3.3,7.36,7.38,7.36,7.38-3.29,7.38-7.36S28.7,0,24.63,0h0Z"/></g></g></g></g></svg>