<svg width="360" height="81" viewBox="0 0 360 81" fill="none" xmlns="http://www.w3.org/2000/svg">
<g clip-path="url(#clip0_277_370)">
<path d="M139.053 40.5492C139.053 61.9688 121.152 79.3038 99.0328 79.3038C76.9135 79.3038 59.0122 61.8692 59.0122 40.5492C59.0122 19.2291 77.0163 1.69489 99.1357 1.69489C121.255 1.69489 139.156 19.0299 139.156 40.4496L139.053 40.5492Z" fill="white" stroke="#231F20" stroke-width="0.185185" stroke-miterlimit="10"/>
<path opacity="0.8" d="M183.909 27.1002C183.909 29.292 183.086 31.0853 181.337 32.5797C179.383 34.1737 176.708 34.8711 173.313 34.8711C173.004 34.8711 171.667 34.8711 169.609 34.7715C167.449 34.7715 165.905 34.6719 164.877 34.6719H161.379C161.379 34.6719 161.173 34.6719 161.173 34.4726V33.4763C161.173 33.4763 161.173 33.2771 161.379 33.2771H164.568C164.568 33.2771 165.082 33.0778 165.082 32.5797C165.082 32.3804 165.082 30.2883 165.082 26.2036C165.082 22.1189 165.082 19.9271 165.082 19.5286V11.2596C164.979 8.66935 164.671 7.3742 164.156 7.3742H160.658C160.658 7.3742 160.453 7.3742 160.453 7.17495V6.17868C160.453 6.17868 160.453 5.97943 160.658 5.97943H168.066C168.066 5.97943 169.095 5.97943 170.535 5.97943C171.975 5.97943 172.798 5.97943 173.107 5.97943H175.267C176.605 5.97943 177.634 6.17868 178.251 6.47756C179.28 6.87607 180.206 7.3742 180.823 8.07159C182.058 9.2671 182.675 10.6619 182.675 12.3555C182.675 14.0492 182.058 15.5436 180.823 16.9383C179.794 18.0342 178.663 18.9309 177.222 19.6283C177.119 19.6283 177.222 19.7279 177.428 19.8275C179.074 20.3256 180.617 21.1227 181.955 22.2185C183.395 23.4141 184.115 25.1077 184.115 27.3991L183.909 27.1002ZM178.251 13.7503C178.251 11.957 177.531 10.363 176.193 9.06785C174.959 7.87233 173.21 7.27458 170.946 7.27458C170.535 7.27458 170.226 7.27458 169.918 7.27458C169.712 7.27458 169.609 7.47383 169.506 7.77271C169.506 8.07159 169.506 11.6581 169.506 18.4327C169.506 18.632 169.506 18.7316 169.609 18.7316C169.609 18.7316 169.609 18.7316 170.021 18.7316C170.329 18.7316 170.844 18.7316 171.461 18.7316C172.49 18.7316 173.724 18.7316 174.959 19.0305C175.267 19.0305 175.473 19.0305 175.679 18.8312C176.399 18.3331 176.914 17.7354 177.325 17.1376C177.942 16.1413 178.148 15.0454 178.148 13.9495L178.251 13.7503ZM179.074 27.698C179.074 25.5062 178.354 23.8126 176.914 22.5174C175.267 21.023 173.107 20.226 170.638 20.226C170.226 20.226 170.021 20.226 169.815 20.3256C169.815 20.3256 169.815 20.5249 169.815 20.7241C169.815 25.7055 169.815 28.7939 169.815 29.7902C169.815 31.7827 170.021 32.779 170.329 32.9782C170.946 33.2771 171.77 33.4763 173.004 33.4763C174.753 33.4763 176.193 33.0778 177.325 32.1812C178.56 31.0853 179.28 29.5909 179.28 27.698H179.074Z" fill="#F5AB1C"/>
<path opacity="0.8" d="M197.49 34.4718C197.49 34.4718 197.49 34.671 197.284 34.671H186.482C186.482 34.671 186.379 34.671 186.276 34.671C186.276 34.671 186.276 34.671 186.276 34.4718V33.6748C186.276 33.6748 186.276 33.4755 186.482 33.4755H189.259C189.259 33.4755 189.568 33.3759 189.671 33.077C189.671 26.7009 189.774 22.3173 189.774 19.9263C189.774 17.7345 189.465 16.6386 188.848 16.6386H186.482C186.482 16.6386 186.173 16.6386 186.173 16.3398V15.3435C186.173 15.3435 186.173 15.1442 186.379 15.1442H189.362C190.288 15.1442 191.008 15.1442 191.626 15.1442C193.066 15.0446 193.786 14.945 193.889 14.945C194.095 14.945 194.198 15.1442 194.198 15.4431C194.198 15.4431 194.198 16.1405 194.198 17.336C194.198 18.5315 194.198 19.1293 194.198 19.2289C194.095 20.2252 193.992 23.6125 193.992 29.2912C193.992 32.1804 194.3 33.5751 194.815 33.5751H197.49C197.49 33.5751 197.696 33.5751 197.696 33.7744V34.671L197.49 34.4718ZM193.992 7.77188C193.992 8.66852 193.58 9.3659 192.757 10.0633C192.037 10.661 191.317 10.9599 190.7 10.9599C189.465 10.9599 188.951 10.3622 188.951 9.26628C188.951 8.66852 189.259 8.07076 189.877 7.37337C190.597 6.57636 191.42 6.17786 192.449 6.17786C193.58 6.17786 194.095 6.67599 194.095 7.77188H193.992Z" fill="#F5AB1C"/>
<path opacity="0.8" d="M220.124 24.7088C220.124 26.6017 219.815 28.1958 219.095 29.5905C218.169 31.2842 217.037 32.6789 215.391 33.5756C213.848 34.4722 211.996 34.9704 209.835 34.9704C207.881 34.9704 206.44 34.7711 205.309 34.273C203.148 33.2767 201.708 31.9816 200.988 30.5868C200.062 28.7935 199.547 27.0002 199.547 25.0077C199.547 22.9156 200.062 20.923 201.091 19.2294C202.017 17.735 203.457 16.6391 205.103 15.8421C206.44 15.2443 208.395 14.9454 210.761 14.9454C212.716 14.9454 214.362 15.3439 215.597 16.0413C217.14 16.938 218.272 18.1335 218.889 19.6279C219.609 21.1223 219.918 22.8159 219.918 24.8085L220.124 24.7088ZM215.803 25.7051C215.803 22.9156 215.082 20.7238 213.745 18.9305C212.305 17.0376 210.556 16.141 208.498 16.2406C206.955 16.2406 205.823 16.7387 205.206 17.6353C204.28 18.9305 203.868 20.7238 203.868 23.0152C203.868 25.3066 204.383 27.598 205.309 29.6902C205.926 30.9853 206.646 31.9816 207.675 32.6789C208.498 33.2767 209.424 33.476 210.453 33.476C211.584 33.476 212.51 33.2767 213.128 32.8782C214.054 32.2804 214.671 31.3838 215.185 30.1883C215.597 29.0924 215.803 27.598 215.803 25.7051Z" fill="#F5AB1C"/>
<path opacity="0.8" d="M233.807 34.4721C233.807 34.4721 233.807 34.6714 233.601 34.6714H222.387C222.387 34.6714 222.078 34.6714 222.078 34.4721V33.6751C222.078 33.6751 222.078 33.3762 222.387 33.3762H225.473C225.473 33.3762 225.885 33.177 225.885 32.8781V9.56548C225.885 6.27781 225.576 4.68379 224.959 4.68379H222.696C222.696 4.68379 222.387 4.68379 222.387 4.38491V3.68752C222.387 3.68752 222.387 3.38864 222.593 3.38864H224.65C225.782 3.38864 227.017 3.18939 228.354 2.89051C229.486 2.59163 230 2.492 229.897 2.492C230.206 2.492 230.412 2.69126 230.412 3.08976C230.412 3.08976 230.412 7.27407 230.309 15.6427C230.309 24.0113 230.206 28.2953 230.206 28.5941C230.206 31.6826 230.514 33.2766 231.029 33.2766H233.807C233.807 33.2766 234.012 33.2766 234.012 33.4758V34.3725L233.807 34.4721Z" fill="#F5AB1C"/>
<path opacity="0.8" d="M256.235 24.7088C256.235 26.6017 255.926 28.1958 255.206 29.5905C254.28 31.2842 253.148 32.6789 251.502 33.5756C249.959 34.4722 248.107 34.9704 245.947 34.9704C243.992 34.9704 242.551 34.7711 241.42 34.273C239.259 33.2767 237.819 31.9816 237.099 30.5868C236.173 28.7935 235.658 27.0002 235.658 25.0077C235.658 22.9156 236.173 20.923 237.202 19.2294C238.128 17.735 239.568 16.6391 241.214 15.8421C242.551 15.2443 244.506 14.9454 246.872 14.9454C248.827 14.9454 250.473 15.3439 251.708 16.0413C253.251 16.938 254.383 18.1335 255 19.6279C255.72 21.1223 256.029 22.8159 256.029 24.8085L256.235 24.7088ZM251.914 25.7051C251.914 22.9156 251.193 20.7238 249.856 18.9305C248.416 17.0376 246.667 16.141 244.609 16.2406C243.066 16.2406 241.934 16.7387 241.317 17.6353C240.391 18.9305 239.979 20.7238 239.979 23.0152C239.979 25.3066 240.494 27.598 241.42 29.6902C242.037 30.9853 242.757 31.9816 243.786 32.6789C244.609 33.2767 245.535 33.476 246.564 33.476C247.695 33.476 248.621 33.2767 249.239 32.8782C250.165 32.2804 250.782 31.3838 251.296 30.1883C251.708 29.0924 251.914 27.598 251.914 25.7051Z" fill="#F5AB1C"/>
<path opacity="0.8" d="M279.486 38.6562C279.486 40.3499 278.56 41.9439 276.811 43.239C274.65 44.833 271.358 45.63 266.934 45.63C263.848 45.63 261.584 45.1319 260.041 44.036C258.807 43.1394 258.086 41.9439 258.086 40.5491C258.086 39.254 258.704 38.0585 260.041 36.8629C260.658 36.3648 261.687 35.8667 263.128 35.2689C263.436 35.0697 263.436 34.97 263.128 34.8704C261.173 34.3723 260.144 33.6749 260.144 32.579C260.144 31.3835 261.173 30.0883 263.23 28.6936C263.436 28.594 263.23 28.3947 262.819 28.0958C261.893 27.5977 261.173 27.0996 260.658 26.7011C259.424 25.5055 258.704 24.0111 258.704 22.0186C258.704 19.9265 259.424 18.2328 260.967 16.7384C262.51 15.3437 264.671 14.6463 267.654 14.6463C269.198 14.6463 270.741 14.7459 272.078 14.9452C273.004 15.0448 274.239 15.1444 275.782 15.1444C276.708 15.1444 277.531 15.0448 278.251 14.7459C278.868 14.5466 279.177 14.447 279.177 14.447C279.28 14.447 279.383 14.6463 279.383 14.9452C279.383 15.7422 279.074 16.3399 278.56 16.9377C278.354 17.1369 278.045 17.2366 277.428 17.2366C277.325 17.2366 276.502 17.2366 275.165 17.0373C274.753 17.0373 274.444 17.0373 274.444 17.0373C274.444 17.0373 274.444 17.2366 274.65 17.3362C275.782 18.4321 276.399 19.8268 276.399 21.5205C276.399 23.513 275.576 25.2067 273.827 26.7011C272.078 28.1954 269.918 28.8928 267.243 28.8928C266.317 28.8928 265.7 28.8928 265.288 28.6936C265.082 28.6936 264.877 28.6936 264.774 28.7932C263.642 29.391 263.128 30.0883 263.025 30.8854C263.025 31.5827 263.539 31.9812 264.774 32.0809C265.7 32.0809 266.728 32.1805 267.654 32.1805C270.432 32.1805 272.49 32.3798 273.93 32.6786C275.473 32.9775 276.811 33.5753 277.84 34.3723C278.971 35.2689 279.589 36.5641 279.589 38.2577L279.486 38.6562ZM276.193 39.7521C276.193 39.7521 275.988 38.8555 275.679 38.3573C275.268 37.6599 274.65 37.1618 273.827 36.9626C272.387 36.4644 270.226 36.2652 267.346 36.2652C265.185 36.2652 263.642 36.6637 262.51 37.5603C261.481 38.3573 260.967 39.3536 260.967 40.5491C260.967 41.645 261.481 42.5416 262.613 43.239C263.745 43.9364 265.597 44.3349 268.066 44.3349C270.535 44.3349 272.593 43.9364 274.033 43.0398C275.473 42.1431 276.091 41.0472 276.091 39.8517L276.193 39.7521ZM272.078 23.0149C272.078 21.0224 271.564 19.4283 270.535 18.3324C269.403 17.1369 268.066 16.4395 266.523 16.4395C265.185 16.4395 264.156 16.8381 263.745 17.5354C263.128 18.4321 262.819 19.6276 262.819 20.9227C262.819 22.716 263.128 24.1108 263.745 25.3063C264.774 27.0996 266.214 27.9962 268.169 27.9962C269.506 27.9962 270.535 27.5977 271.049 26.8007C271.872 25.7048 272.181 24.4096 272.181 23.0149H272.078Z" fill="#F5AB1C"/>
<path opacity="0.8" d="M302.222 16.3401C302.222 16.3401 302.222 16.639 302.017 16.639H301.296C301.296 16.639 300.782 16.7386 300.679 17.0375C300.062 18.0337 299.033 20.4248 297.593 24.1109C296.873 26.0038 296.255 27.4982 295.844 28.4945C294.918 30.487 293.786 33.0773 292.14 36.0661C290.905 38.4571 289.362 41.3463 287.51 44.634C287.408 44.8332 287.202 45.0325 286.893 45.0325C286.07 45.0325 285.041 45.1321 283.807 45.2317C283.395 45.2317 282.778 45.431 281.955 45.5306C281.852 45.5306 281.646 45.3314 281.338 44.9329C281.338 44.8332 281.338 44.634 281.749 44.5344C283.292 43.9366 284.733 42.7411 286.276 41.0474C288.436 38.5568 289.877 36.4646 290.597 34.8706C290.597 34.6713 290.597 34.3725 290.494 34.0736C289.259 31.8818 287.716 28.4945 285.761 24.0113C284.733 21.5206 283.807 19.5281 282.984 18.0337C282.469 17.1371 282.058 16.639 281.646 16.639H280.72C280.72 16.639 280.412 16.639 280.412 16.5393V15.5431C280.412 15.5431 280.515 15.3438 280.72 15.3438H289.98C289.98 15.3438 290.185 15.3438 290.185 15.5431V16.3401C290.185 16.3401 290.185 16.5393 289.98 16.5393H287.922C287.922 16.5393 287.613 16.639 287.51 16.9378C287.51 17.1371 287.51 17.3363 287.51 17.6352C288.025 19.03 288.848 21.0225 289.877 23.5132C290.597 25.2068 291.523 27.299 292.654 29.8893C292.86 30.2878 292.963 30.1882 293.169 29.8893C293.889 28.5941 294.609 26.7012 295.432 24.2106C296.152 22.0188 296.667 19.9266 296.975 18.0337C297.181 17.0375 296.873 16.5393 296.152 16.5393H294.198C294.198 16.5393 293.889 16.5393 293.889 16.4397V15.5431C293.889 15.5431 293.889 15.3438 294.198 15.3438H301.914H302.119C302.119 15.3438 302.119 15.3438 302.119 15.4434V16.2404L302.222 16.3401Z" fill="#F5AB1C"/>
<g opacity="0.8">
<path d="M186.687 69.5409C186.687 69.5409 186.687 69.7401 186.584 69.7401H176.399C176.399 69.7401 176.193 69.7401 176.193 69.5409V68.8435C176.193 68.8435 176.193 68.6442 176.502 68.6442H179.074C179.074 68.6442 179.383 68.6442 179.485 68.445C179.485 68.3454 179.485 67.9469 179.485 67.4487C179.485 66.2532 179.485 63.364 179.485 58.7812C179.485 58.582 179.485 58.4823 179.177 58.4823H168.889C168.889 58.4823 168.58 58.582 168.58 58.8808C168.58 62.3678 168.58 64.4599 168.58 65.2569C168.58 67.5483 168.889 68.6442 169.403 68.6442H172.387C172.387 68.6442 172.49 68.6442 172.49 68.8435V69.5409C172.49 69.5409 172.49 69.7401 172.387 69.7401H162.202H161.996V68.9431C161.996 68.9431 161.996 68.7439 162.202 68.7439H164.362C164.362 68.7439 164.774 68.7439 164.876 68.5446C164.876 68.445 164.876 68.0465 164.876 67.5483C164.876 67.3491 164.876 65.9543 164.876 63.1648C164.876 60.4749 164.876 58.9805 164.876 58.6816C164.876 58.3827 164.876 57.1872 164.876 55.1947C164.876 53.1025 164.876 52.1062 164.876 51.907C164.876 49.8148 164.671 48.8186 164.259 48.8186H161.79C161.79 48.8186 161.584 48.8186 161.584 48.6193V47.8223C161.584 47.8223 161.584 47.623 161.79 47.623H171.769C171.769 47.623 171.975 47.623 171.975 47.8223V48.5197C171.975 48.5197 171.975 48.7189 171.769 48.7189H169.197C169.197 48.7189 168.683 48.8186 168.683 49.1174V52.9033C168.683 55.2943 168.683 56.5894 168.683 56.6891C168.683 56.9879 168.683 57.0876 168.992 57.0876H179.28C179.28 57.0876 179.588 56.9879 179.588 56.7887V54.1984C179.588 52.6044 179.588 51.7077 179.588 51.5085C179.588 49.6156 179.383 48.7189 178.868 48.7189H176.193C176.193 48.7189 175.988 48.7189 175.988 48.5197V47.8223C175.988 47.8223 175.988 47.623 176.193 47.623H186.276C186.276 47.623 186.481 47.623 186.481 47.8223V48.4201C186.481 48.4201 186.481 48.6193 186.276 48.6193H183.909C183.909 48.6193 183.395 48.6193 183.292 48.6193C183.292 48.6193 183.292 48.8186 183.292 49.1174V57.6853C183.292 62.0689 183.292 64.6592 183.292 65.3566C183.292 67.4487 183.601 68.445 184.012 68.445H186.584C186.584 68.445 186.79 68.445 186.79 68.6442V69.3416L186.687 69.5409Z" fill="#4E4E50"/>
<path d="M211.173 68.6446C211.173 68.6446 211.173 68.7442 210.967 68.8439C210.35 69.4416 209.835 69.7405 209.424 70.0394C209.424 70.0394 209.218 70.139 209.115 70.139C208.292 70.139 207.469 69.8401 206.543 69.2424C205.72 68.6446 205.103 67.9472 204.691 67.1502C204.691 66.951 204.486 66.951 204.383 67.1502C203.971 67.8476 203.457 68.3457 202.839 68.8439C201.811 69.6409 200.782 69.9398 199.65 69.9398C198.827 69.9398 198.004 69.7405 197.387 69.342C196.667 68.9435 196.255 68.2461 196.255 67.3495C196.255 66.2536 196.564 65.3569 197.284 64.4603C198.004 63.6633 198.93 62.9659 200.165 62.5674C201.502 62.0693 202.839 61.7704 204.28 61.3719C204.28 61.3719 204.486 61.2723 204.486 60.9734C204.486 59.3793 204.486 58.2835 204.486 57.6857C204.486 57.1876 204.177 56.6894 203.765 56.3906C203.354 55.992 202.737 55.8924 201.914 55.8924C201.091 55.8924 200.576 55.992 200.062 56.2909C199.856 56.3905 199.753 56.6894 199.753 56.9883V57.5861C199.753 58.1838 199.65 58.5823 199.342 58.9808C199.033 59.5786 198.313 59.9771 197.49 59.9771C196.77 59.9771 196.461 59.6782 196.461 59.1801C196.461 58.682 196.77 58.0842 197.284 57.2872C197.798 56.5898 198.519 55.992 199.239 55.5935C200.37 54.9958 201.811 54.6969 203.354 54.6969C204.794 54.6969 205.926 54.9958 206.749 55.6932C207.058 55.8924 207.263 56.2909 207.469 56.8887C207.675 57.3868 207.675 57.8849 207.675 58.2835L207.366 64.6596C207.366 65.8551 207.675 66.7517 208.395 67.2498C209.012 67.748 209.732 68.0469 210.658 68.3457C210.864 68.3457 210.967 68.4454 210.967 68.545L211.173 68.6446ZM204.588 62.667C204.588 62.667 204.588 62.3681 204.28 62.3681C203.56 62.3681 202.737 62.5674 201.811 62.9659C200.165 63.7629 199.444 64.7592 199.444 66.1539C199.444 66.951 199.65 67.4491 200.062 67.8476C200.473 68.1465 200.885 68.3457 201.502 68.2461C202.428 68.1465 203.251 67.5487 203.971 66.5525C204.177 66.2536 204.28 65.9547 204.383 65.6558C204.588 64.5599 204.588 63.5637 204.588 62.667Z" fill="#4E4E50"/>
<path d="M231.44 67.5485C231.44 67.5485 231.44 67.7477 231.234 67.947C230.72 68.3455 230.103 68.744 229.177 69.0429C227.839 69.541 226.605 69.8399 225.473 69.8399C224.239 69.8399 223.21 69.541 222.49 68.9432C221.769 68.3455 221.461 67.4488 221.461 66.4526C221.461 66.2533 221.461 65.1574 221.461 62.866C221.461 60.6742 221.461 59.4787 221.461 59.3791C221.461 57.9843 221.461 57.0877 221.461 56.8884C221.461 56.7888 221.358 56.5896 221.049 56.2907C220.638 56.0914 220.226 55.8922 219.712 55.6929C219.506 55.6929 219.403 55.4937 219.403 55.2944C219.403 55.0952 219.403 54.9955 219.712 54.8959C219.918 54.7963 220.638 54.2982 221.872 53.5011C223.004 52.7041 223.724 52.206 223.827 52.0067C223.93 51.9071 224.136 51.8075 224.341 51.8075C224.65 51.8075 224.753 51.9071 224.753 52.206C224.753 52.8038 224.65 53.5011 224.547 54.2982C224.547 54.597 224.547 54.7963 224.753 54.7963C226.399 54.9955 228.251 54.9955 230.309 54.9955C230.514 54.9955 230.617 55.0952 230.617 55.2944C230.617 55.5933 230.411 55.8922 230.309 56.3903C230.309 56.5896 230.206 56.5896 230 56.5896C229.897 56.5896 228.971 56.5896 227.325 56.4899C225.679 56.4899 224.856 56.3903 224.753 56.3903C224.65 56.3903 224.547 56.3903 224.547 56.6892V65.0578C224.547 66.4526 224.753 67.2496 225.165 67.5485C225.473 67.8473 226.296 67.947 227.428 67.947C228.457 67.947 229.486 67.7477 230.309 67.4488L231.029 67.15C231.029 67.15 231.234 67.3492 231.337 67.6481L231.44 67.5485Z" fill="#4E4E50"/>
<path d="M254.897 67.1497C254.897 67.1497 254.897 67.2493 254.897 67.349C254.177 68.0463 253.148 68.6441 252.016 69.2419C250.782 69.8396 249.444 70.0389 248.107 70.0389C246.049 70.0389 244.403 69.4411 243.169 68.3452C241.728 67.0501 241.008 65.3564 240.802 63.3639C240.802 62.268 240.802 61.1721 241.111 60.0762C241.523 58.4822 242.243 57.1871 243.272 56.2904C244.403 55.2942 245.638 54.796 247.078 54.796C248.313 54.796 249.444 54.9953 250.576 55.3938C251.605 55.7923 252.531 56.39 253.354 57.1871C253.971 57.7848 254.383 58.2829 254.588 58.6815C254.588 58.7811 254.691 58.9803 254.691 59.1796C254.691 59.2792 254.691 59.3788 254.383 59.4785C254.177 59.4785 253.457 59.6777 252.222 59.9766C250.988 60.2755 250.165 60.3751 249.856 60.3751C249.136 60.3751 248.519 60.5744 247.798 60.674C246.461 60.8732 245.638 60.9729 245.226 60.9729H243.889C243.889 60.9729 243.683 61.2717 243.786 61.7699C243.786 63.862 244.506 65.5557 245.638 66.8508C246.049 67.2493 246.667 67.6478 247.593 67.8471C248.416 68.0463 249.239 68.146 250.062 68.146C251.296 68.146 252.325 67.9467 253.045 67.5482C253.56 67.349 253.868 67.0501 254.074 66.8508H254.28C254.28 66.8508 254.486 66.8508 254.588 66.9504C254.588 66.9504 254.691 67.0501 254.691 67.1497H254.897ZM250.988 58.7811C250.988 58.7811 250.988 58.5818 250.885 58.3826C250.576 57.8844 250.473 57.5856 250.37 57.4859C250.165 57.1871 249.753 56.7886 249.239 56.39C248.519 55.8919 247.798 55.593 246.975 55.593C246.255 55.593 245.638 55.9915 245.123 56.6889C244.918 56.9878 244.712 57.3863 244.506 58.0837C244.3 58.7811 244.198 59.2792 244.198 59.6777C244.198 59.877 244.198 59.9766 244.3 59.9766C244.918 59.9766 245.741 59.9766 246.77 59.877C247.078 59.877 247.798 59.6777 248.827 59.4785C249.856 59.2792 250.473 59.08 250.782 58.9803C250.988 58.9803 250.988 58.7811 250.988 58.6815V58.7811Z" fill="#4E4E50"/>
<path d="M276.194 56.3902C276.091 57.2868 275.885 57.9842 275.576 58.4823C275.576 58.582 275.37 58.7812 275.165 58.8808C274.959 58.8808 274.856 58.8808 274.753 58.6816C274.342 58.0838 274.033 57.7849 273.827 57.6853C273.313 57.2868 272.696 57.1872 272.181 57.1872C271.049 57.1872 270.226 57.3864 269.609 57.8846C269.506 57.8846 269.403 58.0838 269.403 58.2831V62.0689C269.403 64.4599 269.403 65.7551 269.403 65.9543C269.403 67.7476 269.609 68.7439 270.021 68.7439H272.901C272.901 68.7439 273.107 68.9431 273.107 69.0427V69.6405C273.107 69.6405 273.107 69.8398 273.004 69.8398H264.156C264.156 69.8398 263.951 69.6405 263.951 69.5409V68.9431C263.951 68.9431 263.951 68.7439 264.156 68.7439H265.905C265.905 68.7439 266.214 68.6442 266.214 68.445V57.9842C266.214 56.4898 266.008 55.7924 265.597 55.7924H263.745C263.745 55.7924 263.539 55.7924 263.539 55.5932V54.8958C263.539 54.8958 263.539 54.6965 263.745 54.6965H266.111C267.037 54.6965 267.757 54.6965 268.169 54.5969C268.683 54.3976 268.992 54.3976 269.198 54.3976C269.403 54.3976 269.403 54.4973 269.403 54.7961C269.403 54.7961 269.403 55.095 269.403 55.5932C269.403 56.0913 269.403 56.2906 269.403 56.3902C269.403 56.6891 269.403 56.7887 269.609 56.6891C270.432 56.0913 270.844 55.6928 271.049 55.5932C271.975 54.9954 272.798 54.6965 273.621 54.6965C274.65 54.6965 275.473 55.095 276.091 55.9917C276.091 56.1909 276.194 56.2905 276.091 56.4898L276.194 56.3902Z" fill="#4E4E50"/>
<path d="M297.387 65.4566C297.387 66.5524 296.975 67.5487 296.152 68.4453C295.226 69.4416 293.683 69.9397 291.523 69.9397C289.156 69.9397 287.202 69.342 285.658 68.2461C285.453 68.0468 285.453 67.8476 285.453 67.5487C285.453 67.4491 285.453 66.8513 285.453 65.9547C285.453 64.9584 285.453 64.4603 285.453 64.4603C285.453 64.261 285.658 64.1614 285.967 64.1614C286.276 64.1614 286.379 64.1614 286.379 64.4603C286.481 64.9584 286.687 65.4566 286.79 65.7554C287.202 66.8513 287.716 67.6483 288.436 68.1465C288.642 68.3457 288.848 68.4453 289.053 68.545C289.774 68.7442 290.597 68.8439 291.728 68.8439C292.963 68.8439 293.889 68.545 294.403 68.0468C294.918 67.5487 295.226 66.951 295.226 66.1539C295.226 65.7554 295.021 65.3569 294.609 65.1577C293.889 64.7592 292.963 64.3607 291.831 64.0618C290.7 63.7629 289.774 63.3644 289.259 63.1651C288.025 62.5674 287.305 62.0693 286.79 61.5711C286.276 60.8737 285.967 59.9771 285.967 58.682C285.967 57.7853 286.379 56.8887 287.099 56.0917C288.23 55.195 289.774 54.6969 291.523 54.6969C293.786 54.6969 295.432 55.195 296.564 56.1913C296.564 56.1913 296.667 56.3905 296.667 56.5898V59.0805C296.667 59.0805 296.667 59.479 296.461 59.479C296.152 59.479 295.946 59.479 295.844 59.2797C295.638 58.8812 295.432 58.4827 295.226 57.9846C294.918 57.3868 294.609 56.8887 294.3 56.5898L293.889 56.2909C293.272 55.8924 292.449 55.6932 291.42 55.6932C290.597 55.6932 289.877 55.7928 289.362 56.0917C288.745 56.3905 288.333 56.9883 288.333 57.6857C288.333 58.8812 289.053 59.6782 290.7 60.1764C291.42 60.4752 292.243 60.7741 293.374 61.073C294.609 61.4715 295.535 61.87 296.049 62.2685C297.078 62.9659 297.49 64.0618 297.49 65.3569L297.387 65.4566Z" fill="#4E4E50"/>
</g>
<path d="M124.342 18.8304H118.683V34.9698H124.342V18.8304Z" fill="#3C3A3A"/>
<path d="M113.333 40.2489H124.342V62.1667H118.683L118.786 45.4295H113.333V40.2489Z" fill="#3C3A3A"/>
<path d="M102.016 18.83H107.675V34.9694H113.333V40.2496H102.016V18.83Z" fill="#3C3A3A"/>
<path d="M107.675 45.9294H102.016V62.1685H107.675V45.9294Z" fill="#3C3A3A"/>
<path d="M73.827 18.8317V62.1692H79.5883V45.9301H90.6995V56.9886L85.1439 56.7894V62.1692C85.1439 62.1692 95.5349 62.4681 96.5637 52.6051C96.5637 52.6051 97.9011 42.8417 86.6871 40.5503C86.6871 40.5503 95.8435 39.0559 96.5637 30.8865C96.5637 30.8865 97.181 19.5291 85.2468 18.9314V24.1119H90.6995V35.0708H79.4855V18.8317H73.827Z" fill="#F6C13B"/>
</g>
<defs>
<clipPath id="clip0_277_370">
<rect width="244.445" height="80" fill="white" transform="translate(57.7776 0.5)"/>
</clipPath>
</defs>
</svg>
